<?xml version="1.0" standalone="no"?>
<!DOCTYPE svg PUBLIC "-//W3C//DTD SVG 20010904//EN"
 "http://www.w3.org/TR/2001/REC-SVG-20010904/DTD/svg10.dtd">
<svg version="1.0" xmlns="http://www.w3.org/2000/svg"
 width="260.000000pt" height="365.000000pt" viewBox="0 0 260.000000 365.000000"
 preserveAspectRatio="xMidYMid meet">
<metadata>
Created by potrace 1.15, written by Peter Selinger 2001-2017
</metadata>
<g transform="translate(0.000000,365.000000) scale(0.100000,-0.100000)"
fill="#000000" stroke="none">
<path d="M1480 2984 c-51 -9 -78 -19 -85 -31 -5 -9 -42 -51 -81 -93 -85 -91
-116 -152 -144 -282 -27 -129 -26 -181 6 -264 14 -38 32 -116 40 -173 10 -80
19 -112 39 -141 14 -20 25 -45 25 -56 0 -26 42 -110 79 -159 28 -36 32 -50 38
-133 5 -75 3 -96 -8 -103 -42 -27 -255 -79 -326 -79 -66 0 -224 -86 -291 -158
-68 -73 -129 -159 -176 -247 -65 -120 -110 -184 -141 -199 -17 -8 -40 -26 -53
-40 -12 -14 -31 -26 -41 -26 -19 0 -61 -43 -61 -62 0 -5 -15 -24 -34 -41 -21
-20 -39 -50 -46 -77 -7 -26 -25 -56 -45 -74 -45 -43 -55 -66 -55 -133 0 -32
-7 -85 -15 -116 -31 -121 -11 -258 42 -283 10 -4 123 -10 251 -12 193 -3 241
-1 279 12 57 20 63 20 63 1 0 -13 90 -15 750 -15 708 0 750 1 750 18 0 24 54
155 78 189 11 15 23 52 26 81 4 29 13 67 21 85 7 18 16 43 19 57 3 15 19 32
40 44 42 22 41 19 67 172 26 152 41 429 28 502 -12 62 -69 189 -105 232 -15
17 -55 41 -102 60 -42 17 -107 46 -144 65 -36 19 -76 35 -88 35 -53 0 -122 62
-139 125 -6 22 -11 66 -11 98 0 51 3 61 29 85 25 24 29 36 34 102 5 56 11 79
25 90 56 46 69 115 79 425 2 72 5 142 5 156 2 46 -85 177 -162 247 -81 73
-127 96 -236 117 -93 18 -123 18 -224 -1z"/>
</g>
</svg>
